<?xml version="1.0" encoding="utf-8"?>
<!-- Generator: Adobe Illustrator 16.0.0, SVG Export Plug-In . SVG Version: 6.00 Build 0)  -->
<!DOCTYPE svg PUBLIC "-//W3C//DTD SVG 1.1//EN" "http://www.w3.org/Graphics/SVG/1.1/DTD/svg11.dtd">
<svg version="1.1" id="Calque_1" xmlns="http://www.w3.org/2000/svg" xmlns:xlink="http://www.w3.org/1999/xlink" x="0px" y="0px"
	 width="150px" height="150px" viewBox="0 0 150 150" enable-background="new 0 0 150 150" xml:space="preserve">
<path fill="#9E9E9E" d="M75.146,115.959c-38.958,0-69.762-37.295-71.056-38.885l-1.756-2.157L4.09,72.76
	c1.293-1.59,32.097-38.885,71.056-38.885c38.958,0,69.765,37.294,71.054,38.884l1.757,2.157l-1.757,2.157
	C144.91,78.664,114.104,115.959,75.146,115.959z M11.285,74.914c7.101,7.826,33.32,34.206,63.861,34.206
	c30.592,0,56.766-26.373,63.858-34.198c-7.102-7.822-33.318-34.206-63.858-34.206C44.554,40.715,18.375,67.088,11.285,74.914z"/>
<path fill="#9E9E9E" d="M64.322,95.438c11.329,0,20.52-9.187,20.52-20.521s-9.191-20.521-20.52-20.521
	c-11.34,0-20.525,9.185-20.525,20.521C43.796,86.252,52.982,95.438,64.322,95.438"/>
<path fill="#FFFFFF" d="M59.165,76.7c3.66,0,6.632-2.972,6.632-6.633c0-3.654-2.972-6.626-6.632-6.626
	c-3.654,0-6.627,2.973-6.627,6.626C52.538,73.729,55.51,76.7,59.165,76.7"/>
</svg>
