<?xml version="1.0" encoding="utf-8"?>
<!-- Generator: Adobe Illustrator 16.0.0, SVG Export Plug-In . SVG Version: 6.00 Build 0)  -->
<!DOCTYPE svg PUBLIC "-//W3C//DTD SVG 1.1//EN" "http://www.w3.org/Graphics/SVG/1.1/DTD/svg11.dtd">
<svg version="1.1" id="Calque_1" xmlns="http://www.w3.org/2000/svg" xmlns:xlink="http://www.w3.org/1999/xlink" x="0px" y="0px"
	 width="150px" height="150px" viewBox="0 0 150 150" enable-background="new 0 0 150 150" xml:space="preserve">
<path fill="#9E9E9E" d="M150,150H0V0h150V150z M3,147h144V3H3V147z"/>
<g>
	<path fill="#231F20" d="M40.202,118.245l-2.658-6.789h-8.555l-2.628,6.789H23.85l8.438-21.433h2.088l8.395,21.433H40.202z
		 M36.771,109.223l-2.482-6.613c-0.322-0.838-0.653-1.862-0.993-3.08c-0.214,0.935-0.521,1.963-0.92,3.08l-2.511,6.613H36.771z"/>
	<path fill="#231F20" d="M52.787,118.537c-1.042,0-1.993-0.191-2.854-0.578c-0.861-0.383-1.584-0.977-2.168-1.771H47.59
		c0.117,0.935,0.175,1.817,0.175,2.656v6.586h-2.423v-23.187h1.971l0.336,2.19h0.116c0.624-0.877,1.348-1.511,2.176-1.898
		c0.828-0.387,1.777-0.584,2.847-0.584c2.121,0,3.759,0.725,4.913,2.177c1.153,1.451,1.73,3.483,1.73,6.103
		c0,2.629-0.587,4.668-1.759,6.123C56.498,117.811,54.87,118.537,52.787,118.537z M52.436,104.011c-1.635,0-2.817,0.452-3.547,1.358
		c-0.73,0.904-1.105,2.344-1.125,4.32v0.541c0,2.248,0.375,3.855,1.125,4.826c0.749,0.967,1.952,1.45,3.606,1.45
		c1.382,0,2.464-0.562,3.248-1.679c0.784-1.119,1.176-2.664,1.176-4.629c0-1.993-0.392-3.523-1.176-4.594
		C54.958,104.545,53.856,104.011,52.436,104.011z"/>
	<path fill="#231F20" d="M70.423,118.537c-2.366,0-4.231-0.723-5.599-2.16c-1.368-1.439-2.051-3.439-2.051-6.001
		c0-2.578,0.635-4.629,1.905-6.146c1.27-1.52,2.975-2.278,5.117-2.278c2.004,0,3.591,0.659,4.759,1.979
		c1.168,1.316,1.752,3.058,1.752,5.219v1.533H65.283c0.048,1.877,0.523,3.305,1.424,4.276s2.168,1.46,3.803,1.46
		c1.723,0,3.428-0.359,5.11-1.08v2.16c-0.858,0.371-1.667,0.635-2.431,0.797C72.426,118.455,71.503,118.537,70.423,118.537z
		 M69.766,103.98c-1.285,0-2.31,0.418-3.074,1.256c-0.763,0.839-1.215,1.994-1.35,3.476h8.366c0-1.526-0.342-2.698-1.022-3.513
		C72.004,104.387,71.032,103.98,69.766,103.98z"/>
	<path fill="#231F20" d="M87.736,101.951c0.714,0,1.351,0.06,1.914,0.176l-0.336,2.248c-0.66-0.146-1.244-0.219-1.752-0.219
		c-1.297,0-2.4,0.525-3.322,1.576c-0.917,1.052-1.379,2.359-1.379,3.929v8.584h-2.424v-16.002h2l0.277,2.965h0.116
		c0.596-1.043,1.308-1.847,2.146-2.409C85.816,102.234,86.732,101.951,87.736,101.951z"/>
	<path fill="#231F20" d="M99.038,118.537c-2.317,0-4.111-0.712-5.379-2.139c-1.272-1.428-1.906-3.443-1.906-6.053
		c0-2.678,0.646-4.744,1.937-6.205c1.287-1.459,3.125-2.189,5.51-2.189c0.769,0,1.539,0.082,2.307,0.249
		c0.77,0.167,1.373,0.358,1.812,0.584l-0.745,2.059c-0.538-0.213-1.122-0.392-1.753-0.53c-0.631-0.145-1.19-0.213-1.678-0.213
		c-3.252,0-4.877,2.072-4.877,6.219c0,1.966,0.396,3.475,1.188,4.525c0.795,1.051,1.968,1.576,3.527,1.576
		c1.332,0,2.701-0.286,4.103-0.861v2.146C102.012,118.26,100.661,118.537,99.038,118.537z M101.199,122.464
		c0,0.943-0.374,1.673-1.116,2.19c-0.747,0.517-1.849,0.773-3.31,0.773c-0.496,0-0.963-0.045-1.4-0.132v-1.548
		c0.438,0.079,0.943,0.117,1.52,0.117c0.768,0,1.352-0.098,1.742-0.292c0.396-0.195,0.594-0.556,0.594-1.08
		c0-0.418-0.192-0.757-0.574-1.015c-0.387-0.261-1.11-0.471-2.172-0.636l1.285-2.6h1.606l-0.804,1.679
		C100.323,120.305,101.199,121.15,101.199,122.464z"/>
	<path fill="#231F20" d="M109.156,102.243v10.381c0,1.306,0.295,2.278,0.89,2.92c0.597,0.644,1.524,0.964,2.788,0.964
		c1.673,0,2.9-0.459,3.671-1.372c0.776-0.913,1.162-2.409,1.162-4.481v-8.41h2.424v16.002h-2.001l-0.35-2.146h-0.133
		c-0.496,0.789-1.186,1.393-2.066,1.811c-0.879,0.418-1.887,0.628-3.014,0.628c-1.944,0-3.404-0.462-4.375-1.388
		c-0.965-0.926-1.45-2.402-1.45-4.438v-10.469L109.156,102.243L109.156,102.243z"/>
</g>
<path fill="#9E9E9E" d="M76.678,69.083c-17.029,0-30.495-16.302-31.06-16.997l-0.768-0.943l0.768-0.943
	c0.565-0.695,14.031-16.998,31.06-16.998c17.03,0,30.493,16.302,31.059,16.998l0.77,0.943l-0.77,0.943
	C107.171,52.781,93.708,69.083,76.678,69.083z M48.763,51.141c3.104,3.419,14.564,14.951,27.915,14.951
	c13.372,0,24.815-11.528,27.914-14.948c-3.104-3.419-14.562-14.952-27.914-14.952C63.306,36.192,51.862,47.721,48.763,51.141z"/>
<path fill="#9E9E9E" d="M80.917,60.112c4.952,0,8.972-4.018,8.972-8.97c0-4.955-4.02-8.97-8.972-8.97
	c-4.959,0-8.972,4.015-8.972,8.97C71.945,56.095,75.958,60.112,80.917,60.112"/>
<path fill="#FFFFFF" d="M83.034,51.919c1.601,0,2.899-1.297,2.899-2.897s-1.3-2.896-2.899-2.896c-1.599,0-2.897,1.296-2.897,2.896
	S81.438,51.919,83.034,51.919"/>
</svg>
