<?xml version="1.0" encoding="utf-8"?>
<!-- Generator: Adobe Illustrator 16.0.0, SVG Export Plug-In . SVG Version: 6.00 Build 0)  -->
<!DOCTYPE svg PUBLIC "-//W3C//DTD SVG 1.1//EN" "http://www.w3.org/Graphics/SVG/1.1/DTD/svg11.dtd">
<svg version="1.1" id="Calque_1" xmlns="http://www.w3.org/2000/svg" xmlns:xlink="http://www.w3.org/1999/xlink" x="0px" y="0px"
	 width="150px" height="150px" viewBox="0 0 150 150" enable-background="new 0 0 150 150" xml:space="preserve">
<path fill="#9E9E9E" d="M95.273,138.854c-1.503-3.399,0.13-7.477,3.662-8.832l0,0l0,0l0,0c3.401-1.501,7.346,0.266,8.847,3.667l0,0
	c1.354,3.398-0.28,7.489-3.679,8.843l0,0c-0.812,0.413-1.767,0.546-2.577,0.546l0,0C98.805,143.077,96.347,141.576,95.273,138.854z
	 M118.113,126.755c-2.589-2.722-2.589-7.065,0-9.654l0,0c2.722-2.722,7.065-2.722,9.655,0l0,0c2.721,2.589,2.721,6.933,0,9.654l0,0
	c-1.369,1.222-2.988,1.899-4.769,1.899l0,0C121.234,128.654,119.468,127.977,118.113,126.755z M134.833,106.637
	c-3.532-1.368-5.167-5.312-3.799-8.844l0,0c1.489-3.401,5.433-5.168,8.965-3.667l0,0c3.398,1.487,5.033,5.433,3.679,8.832l0,0
	c-1.09,2.721-3.679,4.223-6.388,4.223l0,0C136.467,107.181,135.656,107.034,134.833,106.637z M139.15,81.124
	c-3.533-1.368-5.166-5.312-3.799-8.845l0,0c1.488-3.4,5.433-5.166,8.965-3.665l0,0c3.398,1.486,5.033,5.432,3.679,8.831l0,0
	c-1.09,2.721-3.679,4.222-6.388,4.222l0,0C140.784,81.667,139.975,81.521,139.15,81.124z M5.567,81.124
	c-3.532-1.368-5.166-5.312-3.798-8.845l0,0c1.488-3.4,5.432-5.166,8.964-3.665l0,0c3.399,1.486,5.034,5.432,3.678,8.831l0,0
	c-1.088,2.721-3.678,4.222-6.387,4.222l0,0C7.2,81.667,6.391,81.521,5.567,81.124z"/>
<path fill="#9E9E9E" d="M131.034,52.242c0,0,0,0,0.132,0.132l0,0c-1.5-3.532,0.135-7.483,3.534-8.977l0,0
	c3.532-1.494,7.477,0.271,8.978,3.665l0,0c1.354,3.546-0.28,7.49-3.679,8.977l0,0c-0.81,0.279-1.767,0.412-2.576,0.412l0,0
	C134.7,56.451,132.124,54.95,131.034,52.242z M118.113,33.065c-2.589-2.723-2.589-7.072,0-9.661l0,0
	c2.722-2.715,7.065-2.715,9.655,0l0,0c2.576,2.589,2.576,6.938,0,9.661l0,0c-1.369,1.223-3.136,1.898-4.769,1.898l0,0
	C121.234,34.963,119.468,34.288,118.113,33.065z M98.936,20.144c0,0,0,0-0.131,0l0,0c-3.401-1.494-5.034-5.438-3.681-8.977l0,0
	c1.501-3.4,5.579-5.027,8.979-3.672l0,0c3.398,1.501,5.165,5.445,3.679,8.978l0,0c-1.09,2.583-3.679,4.077-6.256,4.077l0,0
	C100.571,20.549,99.748,20.417,98.936,20.144z"/>
<path fill="#9E9E9E" d="M12.312,55.907c-3.533-1.354-5.167-5.299-3.672-8.845l0,0c1.362-3.526,5.444-5.159,8.845-3.665l0,0
	c3.532,1.361,5.166,5.445,3.665,8.845l0,0c-1.083,2.708-3.532,4.209-6.255,4.209l0,0C14.084,56.451,13.128,56.318,12.312,55.907z
	 M24.417,32.926c-2.583-2.583-2.583-6.933,0-9.522l0,0c2.722-2.715,6.932-2.715,9.655,0l0,0c2.722,2.589,2.722,6.938,0,9.522l0,0
	c-1.361,1.362-3.128,2.038-4.762,2.038l0,0C27.543,34.963,25.777,34.288,24.417,32.926z M44.41,16.472
	c-1.362-3.533,0.271-7.477,3.804-8.978l0,0c3.4-1.354,7.477,0.272,8.838,3.812l0,0c1.494,3.4-0.272,7.344-3.671,8.838l0,0
	c-0.817,0.273-1.766,0.545-2.583,0.545l0,0C48.081,20.688,45.631,19.055,44.41,16.472z"/>
<path fill="#9E9E9E" d="M48.214,142.531L48.214,142.531c-3.533-1.354-5.166-5.444-3.672-8.843l0,0
	c1.361-3.533,5.306-5.168,8.838-3.667l0,0l0,0l0,0c3.399,1.355,5.033,5.433,3.671,8.832l0,0c-1.089,2.589-3.671,4.224-6.255,4.224
	l0,0C49.848,143.077,49.03,142.944,48.214,142.531z M74.119,147.241L74.119,147.241c-3.532-1.354-5.166-5.445-3.672-8.843l0,0
	c1.361-3.533,5.306-5.168,8.838-3.666l0,0l0,0l0,0c3.399,1.354,5.033,5.432,3.673,8.83l0,0c-1.089,2.589-3.673,4.225-6.257,4.225
	l0,0C75.753,147.787,74.935,147.653,74.119,147.241z M74.119,14.969L74.119,14.969c-3.532-1.354-5.166-5.445-3.672-8.844l0,0
	c1.361-3.532,5.306-5.167,8.838-3.666l0,0l0,0l0,0c3.399,1.355,5.033,5.432,3.673,8.831l0,0c-1.089,2.59-3.673,4.224-6.257,4.224
	l0,0C75.753,15.515,74.935,15.381,74.119,14.969z M24.417,126.755c-2.583-2.722-2.583-7.065,0-9.654l0,0
	c2.722-2.722,6.932-2.722,9.655,0l0,0c2.722,2.589,2.722,6.933,0,9.654l0,0c-1.361,1.222-3.128,1.899-4.762,1.899l0,0
	C27.543,128.654,25.777,127.977,24.417,126.755z M8.64,102.958v0.133c-1.494-3.532,0.14-7.478,3.672-8.965l0,0
	c3.399-1.501,7.343,0.266,8.837,3.667l0,0c1.501,3.531-0.133,7.476-3.665,8.977l0,0c-0.817,0.265-1.774,0.411-2.59,0.411l0,0
	C12.179,107.181,9.729,105.679,8.64,102.958z"/>
</svg>
