<?xml version="1.0" encoding="utf-8"?>
<!-- Generator: Adobe Illustrator 16.0.0, SVG Export Plug-In . SVG Version: 6.00 Build 0)  -->
<!DOCTYPE svg PUBLIC "-//W3C//DTD SVG 1.1//EN" "http://www.w3.org/Graphics/SVG/1.1/DTD/svg11.dtd">
<svg version="1.1" id="Calque_1" xmlns="http://www.w3.org/2000/svg" xmlns:xlink="http://www.w3.org/1999/xlink" x="0px" y="0px"
	 width="150px" height="150px" viewBox="0 0 150 150" enable-background="new 0 0 150 150" xml:space="preserve">
<path fill="#1AA1CC" d="M124.21,101.71c-12.976,0-23.532-10.558-23.532-23.534c0-12.975,10.559-23.532,23.532-23.532
	c12.976,0,23.526,10.558,23.526,23.532C147.736,91.152,137.186,101.71,124.21,101.71z M124.21,59.368
	c-10.369,0-18.808,8.438-18.808,18.808c0,10.369,8.438,18.811,18.808,18.811c10.372,0,18.806-8.44,18.806-18.811
	C143.016,67.806,134.582,59.368,124.21,59.368z"/>
<g>
	<path fill="#9E9E9E" d="M33.661,97.843c-0.793-1.358-0.34-3.112,1.018-3.849l0,0l0,0l0,0c1.361-0.797,3.116-0.344,3.852,1.018l0,0
		c0.795,1.36,0.34,3.059-1.02,3.85l0,0c-0.452,0.287-0.905,0.397-1.416,0.397l0,0C35.132,99.259,34.171,98.751,33.661,97.843z
		 M42.384,91.162c-1.361-0.797-1.814-2.493-1.021-3.852l0,0c0.793-1.357,2.492-1.812,3.852-1.076l0,0
		c1.358,0.791,1.812,2.551,1.076,3.91l0,0c-0.566,0.9-1.529,1.416-2.49,1.416l0,0C43.345,91.562,42.837,91.443,42.384,91.162z
		 M45.218,81.146c-1.359-0.797-1.815-2.496-1.021-3.851l0,0c0.794-1.358,2.492-1.813,3.854-1.078l0,0
		c1.358,0.791,1.811,2.55,1.076,3.91l0,0c-0.568,0.901-1.531,1.417-2.492,1.417l0,0C46.181,81.546,45.671,81.43,45.218,81.146z
		 M3.078,81.146c-1.361-0.797-1.814-2.496-1.021-3.851l0,0c0.793-1.358,2.491-1.813,3.852-1.078l0,0
		c1.358,0.791,1.812,2.55,1.076,3.91l0,0c-0.567,0.901-1.529,1.417-2.491,1.417l0,0C4.04,81.546,3.531,81.43,3.078,81.146z"/>
	<path fill="#9E9E9E" d="M41.363,69.073c-0.793-1.361-0.34-3.114,1.021-3.904l0,0c1.358-0.793,3.113-0.288,3.906,1.072l0,0
		c0.736,1.362,0.282,3.058-1.076,3.855l0,0c-0.453,0.282-0.906,0.393-1.415,0.393l0,0C42.837,70.489,41.873,69.98,41.363,69.073z
		 M34.679,62.391c-1.358-0.793-1.812-2.548-1.018-3.906l0,0c0.793-1.303,2.492-1.815,3.85-1.021l0,0
		c1.36,0.792,1.814,2.549,1.02,3.907l0,0c-0.508,0.907-1.471,1.417-2.436,1.417l0,0C35.645,62.788,35.132,62.619,34.679,62.391z"/>
	<path fill="#9E9E9E" d="M13.613,98.859c-1.36-0.789-1.811-2.487-1.02-3.849l0,0c0.793-1.36,2.492-1.813,3.853-1.018l0,0
		c1.357,0.735,1.811,2.489,1.02,3.849l0,0c-0.512,0.908-1.475,1.416-2.437,1.416l0,0C14.521,99.259,14.067,99.146,13.613,98.859z
		 M24.154,101.311c-1.361-0.791-1.811-2.487-1.02-3.85l0,0c0.793-1.359,2.492-1.812,3.852-1.018l0,0
		c1.358,0.736,1.812,2.488,1.021,3.851l0,0c-0.511,0.906-1.474,1.416-2.437,1.416l0,0C25.062,101.71,24.608,101.6,24.154,101.311z
		 M24.154,59.903c-1.361-0.79-1.811-2.489-1.02-3.849l0,0c0.793-1.361,2.492-1.814,3.852-1.018l0,0
		c1.358,0.736,1.812,2.49,1.021,3.849l0,0c-0.511,0.908-1.474,1.416-2.437,1.416l0,0C25.062,60.301,24.608,60.19,24.154,59.903z
		 M4.891,90.145L4.891,90.145c-0.793-1.358-0.339-3.119,1.021-3.91l0,0c1.357-0.734,3.058-0.28,3.849,1.078l0,0l0,0l0,0
		c0.793,1.356,0.34,3.054-1.018,3.851l0,0c-0.453,0.282-0.965,0.399-1.416,0.399l0,0C6.363,91.562,5.4,91.046,4.891,90.145z"/>
	<path fill="#9E9E9E" d="M5.912,70.096c-1.36-0.797-1.814-2.55-1.021-3.855l0,0c0.736-1.36,2.492-1.812,3.853-1.072l0,0
		c1.358,0.79,1.811,2.543,1.018,3.904l0,0c-0.508,0.907-1.471,1.416-2.434,1.416l0,0C6.816,70.489,6.363,70.324,5.912,70.096z
		 M12.593,61.372c-0.791-1.357-0.34-3.114,1.02-3.907l0,0c1.358-0.794,3.059-0.282,3.853,1.075l0,0
		c0.791,1.303,0.337,3.058-1.02,3.852l0,0l0,0l0,0c-0.455,0.228-0.908,0.34-1.417,0.34l0,0
		C14.067,62.731,13.104,62.22,12.593,61.372z"/>
</g>
<g>
	<path fill="#231F20" d="M63.944,89.033l19.488-8.119l-19.488-9.28v-3.706l23.919,11.92v2.438L63.944,92.788V89.033z"/>
</g>
</svg>
