<?xml version="1.0" encoding="utf-8"?>
<!-- Generator: Adobe Illustrator 16.0.0, SVG Export Plug-In . SVG Version: 6.00 Build 0)  -->
<!DOCTYPE svg PUBLIC "-//W3C//DTD SVG 1.1//EN" "http://www.w3.org/Graphics/SVG/1.1/DTD/svg11.dtd">
<svg version="1.1" id="Calque_1" xmlns="http://www.w3.org/2000/svg" xmlns:xlink="http://www.w3.org/1999/xlink" x="0px" y="0px"
	 width="150px" height="150px" viewBox="0 0 150 150" enable-background="new 0 0 150 150" xml:space="preserve">
<path fill="#1AA1CC" d="M75,148.333c40.502,0,73.333-32.831,73.333-73.333S115.502,1.667,75,1.667
	C34.494,1.667,1.667,34.498,1.667,75S34.494,148.333,75,148.333"/>
<polygon fill="#FFFFFF" points="29.871,58.712 29.871,87.557 50.941,87.557 79.773,116.393 79.773,29.875 50.941,58.712 "/>
<path fill="#FFFFFF" d="M94.05,54.009l-5.093,5.092c7.734,7.734,7.734,20.314,0,28.049l5.093,5.101
	C104.602,81.708,104.602,64.552,94.05,54.009z"/>
<path fill="#FFFFFF" d="M104.25,43.816l-5.1,5.101c13.358,13.344,13.358,35.067,0,48.427l5.1,5.102
	C120.419,86.275,120.419,59.985,104.25,43.816z"/>
</svg>
