<?xml version="1.0" encoding="utf-8"?>
<!-- Generator: Adobe Illustrator 16.0.0, SVG Export Plug-In . SVG Version: 6.00 Build 0)  -->
<!DOCTYPE svg PUBLIC "-//W3C//DTD SVG 1.1//EN" "http://www.w3.org/Graphics/SVG/1.1/DTD/svg11.dtd">
<svg version="1.1" xmlns="http://www.w3.org/2000/svg" xmlns:xlink="http://www.w3.org/1999/xlink" x="0px" y="0px" width="150px"
	 height="150px" viewBox="0 0 150 150" enable-background="new 0 0 150 150" xml:space="preserve">
<g id="Calque_1">
	<g>
		<path fill="#9E9E9E" d="M127.62,59.513c-3.834,7.894-13.644,11.017-21.921,6.968c-8.267-4.049-11.858-13.729-8.024-21.632
			c3.836-7.902,13.646-11.007,21.922-6.967C127.864,41.931,131.454,51.62,127.62,59.513 M145.689,68.37L149,57.661l-7.146-5.134
			l1.123-5.79l5.274-7.35l-6.136-8.324l-8.285,1.263l-4.19-3.825l-0.225-8.595l-10.848-3.657l-4.489,6.406l-5.893,0.813l-6.303-6.79
			l-10.577,5.911l1.215,8.258L89.39,35.6l-9.483-0.262L76.53,46.804l7.576,5.901l0.065,5.499l-5.761,6.209l5.2,9.1l9.034-0.496
			l4.115,3.395l-0.225,8.37l11.185,3.545l4.415-7.398l5.929-1.478l7.164,7.875l9.39-5.77c0,0-1.084-7.931-1.749-8.258
			c-0.664-0.328,4.461-5.209,4.461-5.209L145.689,68.37z M44.326,108.298c-10.371,0.057-18.886-8.66-19.022-19.466
			c-0.122-10.811,8.178-19.611,18.541-19.677c10.381-0.065,18.896,8.65,19.032,19.452C62.997,99.433,54.698,108.241,44.326,108.298
			 M44.62,131.922l13.023-2.113l1.618-10.157l6.714-1.833l10.563,1.74l5.518-10.755l-5.747-8.101l1.8-6.373l8.941-4.704
			l-1.908-13.308l-9.151-1.413l-4.003-5.761l3.792-10.175l-11.835-8.053l-8.066,5.556l-6.691-0.833l-4.76-10.138l-13.907,2.413
			l-2.184,11.036l-5.761,2.927l-9.628-2.843L6.113,69.22l5.344,9.25l-1.388,6.098l-8.945,4.115l2.202,13.612l10.18,0.805
			l4.704,5.499l-4.503,11.615l11.11,6.902c0,0,7.777-5.274,7.767-6.136c-0.009-0.879,7.861,1.983,7.861,1.983L44.62,131.922z"/>
	</g>
</g>
<g id="Mode_Isolation">
</g>
</svg>
