<?xml version="1.0" encoding="utf-8"?>
<!-- Generator: Adobe Illustrator 16.0.0, SVG Export Plug-In . SVG Version: 6.00 Build 0)  -->
<!DOCTYPE svg PUBLIC "-//W3C//DTD SVG 1.1//EN" "http://www.w3.org/Graphics/SVG/1.1/DTD/svg11.dtd">
<svg version="1.1" id="Calque_1" xmlns="http://www.w3.org/2000/svg" xmlns:xlink="http://www.w3.org/1999/xlink" x="0px" y="0px"
	 width="150px" height="150px" viewBox="0 0 150 150" enable-background="new 0 0 150 150" xml:space="preserve">
<path fill="#9E9E9E" d="M150,150H0.25V0H150V150z M9.203,141.034h131.846V8.966H9.203V141.034z"/>
<g>
	<polygon points="104.438,35.114 81.615,35.114 81.615,29.025 68.636,29.025 68.636,35.114 45.807,35.114 45.807,43.294 
		104.438,43.294 	"/>
	<path d="M92.215,111.046h-4.988l1.147-55.097h7.283L92.215,111.046z M77.628,111.046h-5.004l-1.143-55.097h7.271L77.628,111.046z
		 M58.037,111.046l-3.442-55.097h7.282l1.147,55.097H58.037z M104.438,47.702L104.438,47.702H45.807h-6.219v8.179h6.737
		l3.964,63.413h49.673l3.965-63.413h6.736v-8.179H104.438z"/>
</g>
</svg>
