<?xml version="1.0" encoding="utf-8"?>
<!-- Generator: Adobe Illustrator 16.0.0, SVG Export Plug-In . SVG Version: 6.00 Build 0)  -->
<!DOCTYPE svg PUBLIC "-//W3C//DTD SVG 1.1//EN" "http://www.w3.org/Graphics/SVG/1.1/DTD/svg11.dtd">
<svg version="1.1" id="Calque_1" xmlns="http://www.w3.org/2000/svg" xmlns:xlink="http://www.w3.org/1999/xlink" x="0px" y="0px"
	 width="150px" height="150px" viewBox="0 0 150 150" enable-background="new 0 0 150 150" xml:space="preserve">
<path fill="#9E9E9E" d="M150,150H0V0h150V150z M3,147h144V3H3V147z"/>
<g>
	<path fill="#231F20" d="M40.202,118.245l-2.658-6.789h-8.555l-2.628,6.789H23.85l8.438-21.432h2.088l8.395,21.432H40.202z
		 M36.771,109.223l-2.482-6.614c-0.322-0.837-0.653-1.862-0.993-3.079c-0.214,0.934-0.521,1.962-0.92,3.079l-2.511,6.614H36.771z"/>
	<path fill="#231F20" d="M52.787,118.537c-1.042,0-1.993-0.192-2.854-0.578c-0.861-0.383-1.584-0.976-2.168-1.772h-0.175
		c0.117,0.935,0.175,1.818,0.175,2.657v6.585h-2.423v-23.186h1.971l0.336,2.19h0.116c0.624-0.876,1.348-1.51,2.176-1.898
		c0.828-0.387,1.777-0.584,2.847-0.584c2.121,0,3.759,0.725,4.913,2.177c1.153,1.451,1.73,3.483,1.73,6.103
		c0,2.628-0.587,4.668-1.759,6.122C56.498,117.81,54.87,118.537,52.787,118.537z M52.436,104.011c-1.635,0-2.817,0.452-3.547,1.358
		c-0.73,0.904-1.105,2.344-1.125,4.32v0.541c0,2.248,0.375,3.856,1.125,4.826c0.749,0.967,1.952,1.451,3.606,1.451
		c1.382,0,2.464-0.561,3.248-1.679c0.784-1.119,1.176-2.664,1.176-4.629c0-1.993-0.392-3.523-1.176-4.593
		C54.958,104.545,53.856,104.011,52.436,104.011z"/>
	<path fill="#231F20" d="M70.423,118.537c-2.366,0-4.231-0.722-5.599-2.16c-1.368-1.44-2.051-3.44-2.051-6.001
		c0-2.578,0.635-4.629,1.905-6.146c1.27-1.519,2.975-2.278,5.117-2.278c2.004,0,3.591,0.66,4.759,1.98
		c1.168,1.316,1.752,3.057,1.752,5.218v1.533H65.283c0.048,1.877,0.523,3.305,1.424,4.277s2.168,1.46,3.803,1.46
		c1.723,0,3.428-0.359,5.11-1.08v2.16c-0.858,0.371-1.667,0.635-2.431,0.797C72.426,118.455,71.503,118.537,70.423,118.537z
		 M69.766,103.981c-1.285,0-2.31,0.418-3.074,1.255c-0.763,0.839-1.215,1.995-1.35,3.476h8.366c0-1.527-0.342-2.698-1.022-3.513
		C72.004,104.387,71.032,103.981,69.766,103.981z"/>
	<path fill="#231F20" d="M87.737,101.951c0.713,0,1.35,0.06,1.913,0.176l-0.336,2.248c-0.659-0.146-1.243-0.219-1.752-0.219
		c-1.297,0-2.4,0.526-3.322,1.577c-0.917,1.051-1.379,2.359-1.379,3.928v8.584h-2.424v-16.002h2.001l0.277,2.965h0.116
		c0.596-1.043,1.308-1.846,2.146-2.409C85.816,102.234,86.733,101.951,87.737,101.951z"/>
	<path fill="#231F20" d="M99.038,118.537c-2.318,0-4.111-0.712-5.379-2.138c-1.273-1.428-1.906-3.444-1.906-6.053
		c0-2.678,0.645-4.745,1.937-6.205c1.287-1.46,3.124-2.19,5.509-2.19c0.769,0,1.539,0.082,2.307,0.249
		c0.769,0.167,1.373,0.359,1.812,0.584l-0.745,2.059c-0.538-0.213-1.122-0.392-1.752-0.531c-0.631-0.144-1.191-0.213-1.679-0.213
		c-3.251,0-4.877,2.073-4.877,6.219c0,1.966,0.397,3.475,1.188,4.526c0.795,1.051,1.968,1.576,3.527,1.576
		c1.332,0,2.701-0.286,4.103-0.861v2.146C102.011,118.26,100.661,118.537,99.038,118.537z M101.199,122.464
		c0,0.943-0.374,1.673-1.116,2.19c-0.747,0.517-1.849,0.774-3.309,0.774c-0.496,0-0.964-0.045-1.401-0.132v-1.548
		c0.438,0.079,0.944,0.117,1.519,0.117c0.768,0,1.352-0.097,1.743-0.292c0.396-0.195,0.593-0.555,0.593-1.08
		c0-0.418-0.192-0.757-0.574-1.014c-0.386-0.261-1.11-0.471-2.171-0.636l1.285-2.6h1.606l-0.803,1.679
		C100.323,120.304,101.199,121.15,101.199,122.464z"/>
	<path fill="#231F20" d="M109.156,102.243v10.381c0,1.306,0.295,2.278,0.89,2.92c0.596,0.643,1.524,0.964,2.788,0.964
		c1.673,0,2.9-0.459,3.671-1.372c0.776-0.914,1.162-2.409,1.162-4.482v-8.41h2.424v16.002h-2.001l-0.35-2.146h-0.132
		c-0.496,0.788-1.186,1.392-2.067,1.81c-0.879,0.418-1.886,0.628-3.014,0.628c-1.944,0-3.404-0.462-4.374-1.387
		c-0.966-0.926-1.451-2.403-1.451-4.438v-10.469H109.156z"/>
</g>
<path fill="#9E9E9E" d="M76.678,69.083c-17.029,0-30.495-16.302-31.06-16.997l-0.768-0.943l0.768-0.943
	c0.565-0.695,14.031-16.998,31.06-16.998c17.03,0,30.493,16.302,31.059,16.998l0.769,0.943l-0.769,0.943
	C107.171,52.781,93.708,69.083,76.678,69.083z M48.763,51.141c3.104,3.419,14.564,14.951,27.915,14.951
	c13.372,0,24.815-11.528,27.914-14.948c-3.104-3.419-14.562-14.952-27.914-14.952C63.306,36.192,51.862,47.721,48.763,51.141z"/>
<path fill="#9E9E9E" d="M77.307,60.112c4.953,0,8.971-4.018,8.971-8.97c0-4.955-4.018-8.97-8.971-8.97
	c-4.958,0-8.971,4.015-8.971,8.97C68.335,56.095,72.348,60.112,77.307,60.112"/>
<path fill="#FFFFFF" d="M80.204,51.143c1.601,0,2.899-1.297,2.899-2.897s-1.299-2.896-2.899-2.896c-1.598,0-2.897,1.296-2.897,2.896
	S78.606,51.143,80.204,51.143"/>
</svg>
