<?xml version="1.0" encoding="utf-8"?>
<!-- Generator: Adobe Illustrator 16.0.0, SVG Export Plug-In . SVG Version: 6.00 Build 0)  -->
<!DOCTYPE svg PUBLIC "-//W3C//DTD SVG 1.1//EN" "http://www.w3.org/Graphics/SVG/1.1/DTD/svg11.dtd">
<svg version="1.1" id="Calque_1" xmlns="http://www.w3.org/2000/svg" xmlns:xlink="http://www.w3.org/1999/xlink" x="0px" y="0px"
	 width="150px" height="150px" viewBox="0 0 150 150" enable-background="new 0 0 150 150" xml:space="preserve">
<path fill="#9E9E9E" d="M75.146,116.042c-38.958,0-69.762-37.295-71.056-38.885L2.333,75l1.756-2.157
	c1.293-1.59,32.097-38.884,71.056-38.884c38.957,0,69.765,37.294,71.054,38.884L147.956,75l-1.757,2.157
	C144.91,78.747,114.103,116.042,75.146,116.042z M11.285,74.996c7.101,7.826,33.32,34.206,63.861,34.206
	c30.593,0,56.766-26.373,63.858-34.198c-7.101-7.822-33.319-34.206-63.858-34.206C44.554,40.798,18.375,67.171,11.285,74.996z"/>
<path fill="#9E9E9E" d="M84.845,95.521c11.328,0,20.521-9.186,20.521-20.521c0-11.335-9.192-20.521-20.521-20.521
	c-11.34,0-20.525,9.185-20.525,20.521C64.319,86.335,73.505,95.521,84.845,95.521"/>
<path fill="#FFFFFF" d="M89.688,76.783c3.66,0,6.633-2.973,6.633-6.633c0-3.654-2.973-6.626-6.633-6.626
	c-3.654,0-6.627,2.973-6.627,6.626C83.061,73.811,86.033,76.783,89.688,76.783"/>
</svg>
