<?xml version="1.0" encoding="utf-8"?>
<!-- Generator: Adobe Illustrator 16.0.0, SVG Export Plug-In . SVG Version: 6.00 Build 0)  -->
<!DOCTYPE svg PUBLIC "-//W3C//DTD SVG 1.1//EN" "http://www.w3.org/Graphics/SVG/1.1/DTD/svg11.dtd">
<svg version="1.1" id="Calque_1" xmlns="http://www.w3.org/2000/svg" xmlns:xlink="http://www.w3.org/1999/xlink" x="0px" y="0px"
	 width="150px" height="52.25px" viewBox="0 0 150 52.25" enable-background="new 0 0 150 52.25" xml:space="preserve">
<path fill="#1AA1CC" d="M124.21,49.658c-12.976,0-23.532-10.558-23.532-23.534c0-12.975,10.559-23.531,23.532-23.531
	c12.976,0,23.526,10.558,23.526,23.531C147.736,39.101,137.186,49.658,124.21,49.658z M124.21,7.316
	c-10.369,0-18.808,8.438-18.808,18.808s8.438,18.811,18.808,18.811c10.372,0,18.806-8.44,18.806-18.811
	C143.016,15.755,134.582,7.316,124.21,7.316z"/>
<g>
	<path fill="#9E9E9E" d="M33.661,45.791c-0.793-1.358-0.34-3.112,1.018-3.849l0,0l0,0l0,0c1.361-0.797,3.116-0.344,3.852,1.018l0,0
		c0.795,1.36,0.34,3.059-1.02,3.85l0,0c-0.452,0.287-0.905,0.397-1.416,0.397l0,0C35.132,47.207,34.171,46.699,33.661,45.791z
		 M42.384,39.11c-1.361-0.797-1.814-2.493-1.021-3.852l0,0c0.793-1.357,2.492-1.812,3.852-1.076l0,0
		c1.358,0.791,1.812,2.551,1.076,3.91l0,0c-0.566,0.9-1.529,1.416-2.49,1.416l0,0C43.345,39.511,42.837,39.392,42.384,39.11z
		 M45.218,29.095c-1.359-0.797-1.815-2.496-1.021-3.851l0,0c0.794-1.358,2.492-1.813,3.854-1.078l0,0
		c1.358,0.791,1.811,2.55,1.076,3.91l0,0c-0.568,0.901-1.531,1.417-2.492,1.417l0,0C46.181,29.494,45.671,29.378,45.218,29.095z
		 M3.078,29.095c-1.361-0.797-1.814-2.496-1.021-3.851l0,0c0.793-1.358,2.491-1.813,3.852-1.078l0,0
		c1.358,0.791,1.812,2.55,1.076,3.91l0,0c-0.567,0.901-1.529,1.417-2.491,1.417l0,0C4.04,29.494,3.531,29.378,3.078,29.095z"/>
	<path fill="#9E9E9E" d="M41.363,17.021c-0.793-1.361-0.34-3.114,1.021-3.904l0,0c1.358-0.793,3.113-0.288,3.906,1.072l0,0
		c0.736,1.362,0.282,3.058-1.076,3.854l0,0c-0.453,0.282-0.906,0.394-1.415,0.394l0,0C42.837,18.438,41.873,17.929,41.363,17.021z
		 M34.679,10.339c-1.358-0.793-1.812-2.548-1.018-3.906l0,0c0.793-1.303,2.492-1.814,3.85-1.021l0,0
		c1.36,0.792,1.814,2.55,1.02,3.907l0,0c-0.508,0.906-1.471,1.417-2.436,1.417l0,0C35.645,10.736,35.132,10.567,34.679,10.339z"/>
	<path fill="#9E9E9E" d="M13.613,46.808c-1.36-0.789-1.811-2.487-1.02-3.849l0,0c0.793-1.36,2.492-1.813,3.853-1.018l0,0
		c1.357,0.735,1.811,2.489,1.02,3.849l0,0c-0.512,0.908-1.475,1.416-2.437,1.416l0,0C14.521,47.207,14.067,47.095,13.613,46.808z
		 M24.154,49.259c-1.361-0.791-1.811-2.487-1.02-3.85l0,0c0.793-1.359,2.492-1.812,3.852-1.018l0,0
		c1.358,0.736,1.812,2.488,1.021,3.851l0,0c-0.511,0.906-1.474,1.416-2.437,1.416l0,0C25.062,49.658,24.608,49.548,24.154,49.259z
		 M24.154,7.851c-1.361-0.789-1.811-2.488-1.02-3.848l0,0c0.793-1.361,2.492-1.814,3.852-1.019l0,0
		c1.358,0.735,1.812,2.489,1.021,3.849l0,0c-0.511,0.908-1.474,1.416-2.437,1.416l0,0C25.062,8.249,24.608,8.138,24.154,7.851z
		 M4.891,38.093L4.891,38.093c-0.793-1.358-0.339-3.119,1.021-3.91l0,0c1.357-0.734,3.058-0.28,3.849,1.078l0,0l0,0l0,0
		c0.793,1.356,0.34,3.054-1.018,3.851l0,0c-0.453,0.282-0.965,0.399-1.416,0.399l0,0C6.363,39.511,5.4,38.994,4.891,38.093z"/>
	<path fill="#9E9E9E" d="M5.912,18.044c-1.36-0.797-1.814-2.55-1.021-3.854l0,0c0.736-1.36,2.492-1.812,3.853-1.072l0,0
		c1.358,0.79,1.811,2.543,1.018,3.904l0,0c-0.508,0.907-1.471,1.416-2.434,1.416l0,0C6.816,18.438,6.363,18.272,5.912,18.044z
		 M12.593,9.32c-0.791-1.356-0.34-3.114,1.02-3.907l0,0c1.358-0.794,3.059-0.281,3.853,1.075l0,0
		c0.791,1.303,0.337,3.058-1.02,3.853l0,0l0,0l0,0c-0.455,0.228-0.908,0.34-1.417,0.34l0,0C14.067,10.679,13.104,10.168,12.593,9.32
		z"/>
</g>
<g>
	<path fill="#231F20" d="M63.944,36.981l19.488-8.119l-19.488-9.28v-3.706l23.919,11.92v2.438L63.944,40.736V36.981z"/>
</g>
</svg>
