<?xml version="1.0" encoding="utf-8"?>
<!-- Generator: Adobe Illustrator 16.0.0, SVG Export Plug-In . SVG Version: 6.00 Build 0)  -->
<!DOCTYPE svg PUBLIC "-//W3C//DTD SVG 1.1//EN" "http://www.w3.org/Graphics/SVG/1.1/DTD/svg11.dtd">
<svg version="1.1" id="Calque_1" xmlns="http://www.w3.org/2000/svg" xmlns:xlink="http://www.w3.org/1999/xlink" x="0px" y="0px"
	 width="150px" height="150px" viewBox="0 0 150 150" enable-background="new 0 0 150 150" xml:space="preserve">
<g id="Calque_1_1_">
	<g>
		<rect x="9" y="9" fill="#FFFFFF" width="132" height="132"/>
		<path d="M36.062,95.874c-0.824,0-1.666-0.319-2.298-0.961c-1.272-1.263-1.272-3.323,0-4.586l56.552-56.562
			c1.271-1.264,3.332-1.264,4.613,0c1.264,1.272,1.264,3.333,0,4.605L38.37,94.913C37.738,95.555,36.905,95.874,36.062,95.874"/>
		<path d="M46.628,106.43c-0.842,0-1.667-0.32-2.307-0.961c-1.264-1.264-1.264-3.322,0-4.596l47.746-47.754
			c1.271-1.264,3.342-1.264,4.604,0c1.272,1.272,1.272,3.341,0,4.605l-47.754,47.745C48.294,106.109,47.452,106.43,46.628,106.43"/>
		<path d="M57.385,117.188c-0.833,0-1.675-0.319-2.307-0.951c-1.272-1.272-1.272-3.334,0-4.605l56.552-56.552
			c1.272-1.264,3.333-1.264,4.597,0c1.281,1.272,1.281,3.342,0,4.605l-56.542,56.552C59.052,116.867,58.218,117.188,57.385,117.188"
			/>
		<path d="M57.385,117.188c-0.833,0-1.675-0.319-2.307-0.951L33.774,94.922c-1.282-1.264-1.282-3.333,0-4.605
			c1.263-1.264,3.323-1.264,4.596,0l21.313,21.313c1.273,1.272,1.273,3.333,0,4.604C59.052,116.867,58.218,117.188,57.385,117.188"
			/>
		<path d="M113.938,60.635c-0.842,0-1.666-0.32-2.308-0.961L90.316,38.37c-1.272-1.272-1.272-3.333,0-4.605
			c1.283-1.264,3.342-1.264,4.605,0l21.305,21.304c1.281,1.282,1.281,3.342,0,4.605C115.604,60.315,114.771,60.635,113.938,60.635"
			/>
		<path d="M105.13,69.434c-0.833,0-1.666-0.312-2.307-0.952L81.509,47.168c-1.263-1.264-1.263-3.323,0-4.596
			c1.282-1.273,3.343-1.273,4.614,0l21.304,21.313c1.272,1.263,1.272,3.332,0,4.596C106.796,69.122,105.963,69.434,105.13,69.434"/>
		<path d="M36.062,117.188c-1.794,0-3.241-1.455-3.241-3.25V92.624c0-1.794,1.446-3.259,3.241-3.259
			c1.813,0,3.259,1.465,3.259,3.259v21.313C39.322,115.73,37.875,117.188,36.062,117.188"/>
		<path d="M57.385,117.188H36.062c-1.794,0-3.25-1.455-3.25-3.25c0-1.804,1.456-3.26,3.25-3.26h21.323c1.804,0,3.25,1.456,3.25,3.26
			C60.635,115.73,59.189,117.188,57.385,117.188"/>
	</g>
</g>
<g id="Mode_Isolation">
	<path fill="#9E9E9E" d="M150,150H0V0h150V150z M9.375,140.625h131.25V9.375H9.375V140.625z"/>
</g>
</svg>
