<?xml version="1.0" encoding="utf-8"?>
<!-- Generator: Adobe Illustrator 16.0.0, SVG Export Plug-In . SVG Version: 6.00 Build 0)  -->
<!DOCTYPE svg PUBLIC "-//W3C//DTD SVG 1.1//EN" "http://www.w3.org/Graphics/SVG/1.1/DTD/svg11.dtd">
<svg version="1.1" id="Calque_1" xmlns="http://www.w3.org/2000/svg" xmlns:xlink="http://www.w3.org/1999/xlink" x="0px" y="0px"
	 width="150px" height="150px" viewBox="0 0 150 150" enable-background="new 0 0 150 150" xml:space="preserve">
<g id="Calque_1_1_">
	<path fill="#EB5454" d="M75.194,149.607c-41.094,0-74.525-33.438-74.525-74.526c0-41.094,33.432-74.525,74.525-74.525
		c41.089,0,74.525,33.432,74.525,74.525C149.719,116.17,116.283,149.607,75.194,149.607z M75.194,9.875
		c-35.954,0-65.206,29.252-65.206,65.206s29.252,65.206,65.206,65.206c35.955,0,65.207-29.252,65.207-65.206
		S111.148,9.875,75.194,9.875z"/>
	<rect x="70.019" y="61.062" fill="#EB5454" width="10.351" height="62.102"/>
	<rect x="70.019" y="26.998" fill="#EB5454" width="10.351" height="20.701"/>
</g>
</svg>
