<?xml version="1.0" encoding="utf-8"?>
<!-- Generator: Adobe Illustrator 16.0.0, SVG Export Plug-In . SVG Version: 6.00 Build 0)  -->
<!DOCTYPE svg PUBLIC "-//W3C//DTD SVG 1.1//EN" "http://www.w3.org/Graphics/SVG/1.1/DTD/svg11.dtd">
<svg version="1.1" id="Calque_1" xmlns="http://www.w3.org/2000/svg" xmlns:xlink="http://www.w3.org/1999/xlink" x="0px" y="0px"
	 width="150px" height="150px" viewBox="0 0 150 150" enable-background="new 0 0 150 150" xml:space="preserve">
<path fill="#1AA1CC" d="M75,147.666c40.316,0,72.999-32.684,72.999-73c0-40.317-32.683-72.999-72.999-72.999
	c-40.321,0-73,32.682-73,72.999C2,114.982,34.679,147.666,75,147.666"/>
<path fill="#FFFFFF" d="M75,107.682c-31.094,0-55.621-29.435-56.647-30.687l-1.913-2.329l1.913-2.329
	C19.379,71.086,43.906,41.66,75,41.66c31.098,0,55.621,29.426,56.65,30.678l1.908,2.329l-1.908,2.329
	C130.621,78.247,106.098,107.682,75,107.682z M26.104,74.667C32.4,81.393,52.183,100.348,75,100.348
	c22.82,0,42.6-18.955,48.896-25.681C117.6,67.942,97.82,48.995,75,48.995C52.183,48.995,32.4,67.942,26.104,74.667z"/>
<path fill="#FFFFFF" d="M82.794,91.174c9.125,0,16.507-7.39,16.507-16.507S91.919,58.16,82.794,58.16
	c-9.109,0-16.503,7.39-16.503,16.507S73.685,91.174,82.794,91.174"/>
<path fill="#00AED3" d="M86.691,76.102c2.945,0,5.338-2.386,5.338-5.332c0-2.947-2.393-5.331-5.338-5.331
	c-2.938,0-5.324,2.384-5.324,5.331C81.367,73.716,83.753,76.102,86.691,76.102"/>
</svg>
