<?xml version="1.0" encoding="utf-8"?>
<!-- Generator: Adobe Illustrator 16.0.0, SVG Export Plug-In . SVG Version: 6.00 Build 0)  -->
<!DOCTYPE svg PUBLIC "-//W3C//DTD SVG 1.1//EN" "http://www.w3.org/Graphics/SVG/1.1/DTD/svg11.dtd">
<svg version="1.1" id="Calque_1" xmlns="http://www.w3.org/2000/svg" xmlns:xlink="http://www.w3.org/1999/xlink" x="0px" y="0px"
	 width="150px" height="87.834px" viewBox="0 0 150 87.834" enable-background="new 0 0 150 87.834" xml:space="preserve">
<path fill="#9E9E9E" d="M75.146,84.959c-38.958,0-69.762-37.295-71.056-38.885l-1.756-2.157L4.09,41.76
	C5.383,40.17,36.187,2.875,75.146,2.875c38.958,0,69.765,37.294,71.054,38.884l1.757,2.157l-1.757,2.157
	C144.91,47.664,114.104,84.959,75.146,84.959z M11.285,43.914c7.101,7.826,33.32,34.206,63.861,34.206
	c30.592,0,56.766-26.373,63.858-34.198C131.902,36.1,105.686,9.716,75.146,9.716C44.554,9.715,18.375,36.088,11.285,43.914z"/>
<path fill="#9E9E9E" d="M74.322,64.438c11.328,0,20.52-9.187,20.52-20.521s-9.191-20.521-20.52-20.521
	c-11.34,0-20.525,9.185-20.525,20.521C53.796,55.252,62.982,64.438,74.322,64.438"/>
<path fill="#FFFFFF" d="M80.498,45.7c3.66,0,6.633-2.972,6.633-6.633c0-3.654-2.973-6.626-6.633-6.626
	c-3.653,0-6.627,2.973-6.627,6.626C73.871,42.728,76.844,45.7,80.498,45.7"/>
</svg>
