<?xml version="1.0" encoding="utf-8"?>
<!-- Generator: Adobe Illustrator 16.0.0, SVG Export Plug-In . SVG Version: 6.00 Build 0)  -->
<!DOCTYPE svg PUBLIC "-//W3C//DTD SVG 1.1//EN" "http://www.w3.org/Graphics/SVG/1.1/DTD/svg11.dtd">
<svg version="1.1" id="Calque_1" xmlns="http://www.w3.org/2000/svg" xmlns:xlink="http://www.w3.org/1999/xlink" x="0px" y="0px"
	 width="150px" height="121.422px" viewBox="0 11.5 150 121.422" enable-background="new 0 11.5 150 121.422" xml:space="preserve">
<g id="Calque_1_1_">
	<g>
		<path fill="#9E9E9E" d="M127.62,56.764c-3.834,7.894-13.644,11.017-21.921,6.968c-8.268-4.049-11.858-13.729-8.024-21.632
			c3.837-7.902,13.646-11.007,21.923-6.967C127.863,39.182,131.454,48.871,127.62,56.764 M145.689,65.621L149,54.912l-7.146-5.134
			l1.123-5.79l5.274-7.35l-6.136-8.324l-8.285,1.263l-4.189-3.825l-0.226-8.595L118.566,13.5l-4.488,6.406l-5.893,0.813l-6.304-6.79
			L91.305,19.84l1.215,8.258l-3.129,4.753l-9.483-0.262l-3.378,11.466l7.576,5.901l0.065,5.499l-5.761,6.209l5.199,9.101
			l9.035-0.497l4.114,3.395l-0.225,8.37l11.185,3.545l4.415-7.397l5.929-1.479l7.164,7.875l9.391-5.77c0,0-1.084-7.932-1.749-8.259
			c-0.664-0.328,4.461-5.209,4.461-5.209L145.689,65.621z M44.326,105.549c-10.371,0.058-18.886-8.659-19.022-19.466
			c-0.122-10.811,8.178-19.611,18.541-19.677c10.381-0.065,18.896,8.65,19.032,19.453C62.997,96.685,54.698,105.492,44.326,105.549
			 M44.62,129.173l13.023-2.113l1.618-10.156l6.714-1.834l10.563,1.74l5.519-10.754l-5.748-8.102l1.801-6.373l8.94-4.704
			l-1.907-13.308l-9.151-1.414l-4.003-5.76l3.792-10.175l-11.834-8.053l-8.066,5.556l-6.691-0.833l-4.76-10.138l-13.907,2.413
			l-2.184,11.036l-5.761,2.927l-9.628-2.843L6.113,66.471l5.344,9.25l-1.388,6.098l-8.945,4.115l2.202,13.611l10.18,0.805l4.704,5.5
			l-4.503,11.614l11.11,6.902c0,0,7.777-5.274,7.767-6.136c-0.009-0.879,7.861,1.982,7.861,1.982L44.62,129.173z"/>
	</g>
</g>
<g id="Mode_Isolation">
</g>
</svg>
